<svg xmlns="http://www.w3.org/2000/svg"  viewBox="0 0 512 512" width="480px" height="480px"><path fill="#14B6B9" d="M367.1 141.4c-7.2-11.6-15.3-22.5-24.4-32.4-.7.3-1.5.5-2.2.8-10 3.4-20.1 6.2-30.4 8.6-2.5.6-4.9 1.1-7.4 1.7.4.8.7 1.5 1 2.3 11.6 25.6 17.8 51.8 20.2 79.8.5 5.6.9 11.1 1.2 16.7 7.4-1.3 14.8-2.7 22.1-4.5 16.4-3.9 32.9-9.1 47.8-17.1C387.5 177.8 378.2 159.1 367.1 141.4zM196.6 129.3c-5.4-.3-13.2-.7-21.5-1.8-10.6 17.4-19.3 35.4-24.6 55.4-3.3 12.3-5.6 24.8-7.4 37.3 22 5.8 46.7 6.5 67.4 6.4.2-9.7.8-19.3 1.6-29 2-22.7 4.8-45.6 10.1-67.9C213.7 129.9 205.2 129.8 196.6 129.3zM314.9 231.3c-11.5 1.5-23 2.6-34.4 3.4-19.5 1.5-39.3 2.8-59.1 3.2 0 4.6.1 9.1.3 13.7.7 17.8 2.5 35.7 6 53.2 2.9.2 5.8.4 8.7.5 25.4.6 50.9.3 76.3-1.5.4-4.6.8-9.1 1.1-13.6C315.2 270.6 315.6 250.9 314.9 231.3zM313.1 202.9c-1.3-13.8-2.8-27.5-6.5-41-3.4-12.3-7.8-24.4-13.2-36-.6-1.2-1.1-2.4-1.7-3.7-19.2 3.7-38.5 6.1-58 7.1-2.4 9.9-4.4 20-5.9 30.1-3.4 22.2-5.7 44.6-6.3 67 30.8-.5 62.2-1.6 92.8-6C314 214.6 313.6 208.7 313.1 202.9zM228.6 350.2c-3.5-11.8-6.9-23.5-9.7-35.3-4.9-.5-9.9-1.1-14.7-1.9-21.7-3.5-43.1-8.6-64.3-14.4.2 3.3.4 6.6.8 9.9.2 1.9.5 3.7.8 5.6 9.2-10 25.1 1.4 33.2 7.7 5.6 4.4 10.9 9.2 16.4 13.6 1 .8 2 1.5 3.1 2.3 1 .7 1.7 1.1 1.7 1 4.8 2.1 10.1 3.5 15.1 5.3 6 2.1 12.2 4.7 18.2 7.7C228.9 351.2 228.7 350.7 228.6 350.2zM214 289.3c-2.4-17-3.5-34.2-3.5-51.3-15.6-.1-31.1-.9-46.4-2.9-7.3-1-14.8-2.4-22.1-4.3-1.2 11.8-1.9 23.6-2.2 35.4-.1 6.9-.3 13.9-.3 20.9 1.8.5 3.6 1 5.3 1.5 14.7 4.3 29.7 7.7 44.7 10.7 8.9 1.8 17.9 3.4 27 4.5C215.5 298.9 214.7 294.1 214 289.3zM399.1 207.5C399.1 207.5 399.1 207.5 399.1 207.5c-22.9 11.7-47.9 18.2-73.3 22.3.8 20.9.4 41.7-1.2 62.6-.3 3.5-.6 7-.9 10.6 2.3-.2 4.6-.4 6.9-.7 25.8-2.6 51.1-7.5 76.5-12.5 3.7-.7 7.3-1.5 11-2.3C414.8 260.2 408.4 233.3 399.1 207.5zM458.5 209.3c-2.6-15.3-7.2-30.1-13.6-44.2-2.6 5.6-7 11.3-9.3 14-7.6 8.9-16.8 16.6-26.8 22.8 6.8 18.5 12.1 37.5 16 56.8 1.7 8.6 3.1 17.3 4.2 26 2.4-.7 4.8-1.4 7.2-2.2 6.5-2.2 15.5-5.1 18.8-11.8 1.1-2.3 3.1-3.1 5.1-2.9C461.8 248.3 461.8 228.7 458.5 209.3zM437.6 150.8c-4.2-7.5-8.8-14.7-13.9-21.6-14-18.8-31.3-34.4-51-46.1-.3.8-.6 1.6-1.1 2.4-3.4 5.2-7.9 9.9-12.5 14.1-2 1.8-3.9 3.2-5.9 4.4.1.2.3.3.4.5 18.7 21.3 33.1 46.5 44.7 72.2 2.2 4.9 4.3 9.8 6.3 14.7 2.2-1.5 4.4-3 6.5-4.6 6.5-4.9 10.9-8.9 16.1-15 2.5-3 5.1-6.1 7-9.5.3-.5.8-1.5 1.2-2.2C432.4 157.2 432.9 151.2 437.6 150.8zM431.7 295.4c-.5.1-1.1.3-1.6.4.2 2.2.4 4.5.6 6.8 1.1 14.5 1.3 29.2-2.4 43.3 6.5-5.4 11.6-11 15.1-18.6 3.2-7.1 6.1-14.5 10.4-21-2.5-2.1-3.4-6.5 0-9.1.9-.7 1.8-1.2 2.8-1.6.6-3.9 1.2-7.9 1.7-11.8C450.9 289.9 440.3 293.1 431.7 295.4zM418.3 350.6c-6.1-1.6-5.1-10.5.1-11 2.2-10.7 2.3-21.6 1.5-32.6-.2-2.9-.4-5.8-.7-8.6-9.3 2.1-18.7 4-28 5.8-22.7 4.5-45.6 7.8-68.7 9.8-1.6 13.5-3.9 26.9-8.3 39.7 7.1-4 14.7-7.2 22.1-9.8 5-1.8 10.3-3.1 15.1-5.3-.1 0 .7-.4 1.7-1 1-.7 2.1-1.5 3.1-2.3 5.6-4.4 10.8-9.2 16.4-13.6 8.5-6.6 25.6-18.9 34.5-6.1 4.3 6.2 5.2 15 2.8 22-2.5 7.3-8.7 12.9-14.9 17.3-7.2 5.1-15 9.2-22.5 13.9-1.3.8-2.7 1.7-4.1 2.6 1.8-.3 3.7-.5 5.5-.8 7-1 13.2-2.9 19.8-5.3 9.4-3.4 18.4-7.9 26.6-13.6C418.7 351.2 416 350 418.3 350.6zM174.7 369c-7.5-4.7-15.3-8.8-22.5-13.9-.1-.1-.3-.2-.4-.3 1 6.2-8.6 9.3-10.6 2.8-5.9-19.3-12.1-39.1-12.3-59.5 0-.8 0-1.7 0-2.5-2.2-.6-4.5-1.3-6.7-1.9-16.8-4.8-35-11-47.5-23.6.6 9.1 1.6 18.1 3.2 27 6.5-1.4 12.2 4.1 15.5 9 4.4 6.6 7.3 14 10.5 21.1 3.8 8.4 9.6 14.3 17.1 20.3 9.7 7.7 20.8 13.6 32.5 17.9 6.6 2.4 12.8 4.3 19.8 5.3 1.8.3 3.7.5 5.5.8C177.4 370.7 176 369.8 174.7 369z"/><path fill="#FCBF95" d="M238.9,370.3c-3.2,1-5.6-1.4-6-4.4c-5.7-3.8-11.9-6.8-17.9-9.2c-8.4-3.3-18.2-5-25.9-9.7c-5.3-3.2-9.9-7.8-14.7-11.8c-5.4-4.5-11-9.3-17.3-12.5c-2.3-1.2-4.4-1.9-6.8-1.9c0.3,0-1.1,0.5-0.6,0.2c-0.9,0.6-1.3,1.3-1.8,2.5c-5.7,13.7,9.2,22.5,19,28.5c12,7.3,27.1,14,34,27.1c2.9,5.5-4.7,9.8-8.4,6.1c-0.3,0-0.6-0.1-0.9-0.2c-6.7-2.1-13.7-2.9-20.6-3.9c-7.3-1.1-13.9-3.2-20.8-5.7c-11.6-4.1-22.6-10.1-32.5-17.3c-8-5.8-16.4-13-21-21.8c-3.5-6.7-6-13.9-9.6-20.6c-1.3-2.4-2.8-5.2-5-7.1c-1.8-1.6-2.4-1.7-4.3-0.2c-8.3,6.4-6.5,16.3-3.1,25c3.4,8.6,8.9,15.9,13.8,23.5c4.7,7.3,11,14.2,17.6,19.9c4.2,3.6,11,9.7,17,8c6.6-1.9,8.5,8.5,2,10.4c-8,2.3-16.2-2.8-22.3-7.4c-7.6-5.8-14.2-13.1-19.9-20.6c-10.5-13.9-23.7-32.2-21.6-50.5c0.2-1.4,0.5-2.9,1-4.3c-2.9-0.2-6.1,0.5-8.5,1.4c-5,1.8-7,6-7.3,11.1c-0.6,10.5,6.6,22,12.3,30.2c14.7,21,36.9,35.4,58.1,49.2c5.7,3.7-0.2,12.5-5.9,8.8c-22.7-14.7-45.5-30.3-61.1-52.5c1.4,3.3,3.3,6.5,4.3,8.6c4,7.5,8.8,14.5,14.3,21c12.5,14.6,28.8,25,46.6,31.8c8.2,3.1,17,6,25.7,6.7c7.8,0.7,15.4,1.2,20.8,7.6c5.1,6,2.8,15.9,2.2,22.9c-0.6,7.2,0.2,17.9,4.4,23.9c0.2,0.2,0.3,0.5,0.4,0.7c0.9-0.6,1.9-1,3.2-1h73.5c-0.1-5-0.3-10-0.2-15.1c0.1-7.6,1.4-15,2.8-22.4c2.4-12.7,7.7-24.7,9.1-37.6C258.7,391.9,250.4,379.5,238.9,370.3z"/><path fill="#14B6B9" d="M83.2 189.9c-5.9 20.1-8.8 41-9 61.9.6.4 1.2 1 1.7 1.8 10.8 18.4 32.5 25.1 52.9 30.5 0-18.9.4-37.8 2.4-56.7C111.1 220.6 93.1 208.9 83.2 189.9zM298 315.7c-22.5 1.1-45.3 1.7-67.9.2 1 4.1 2.1 8.3 3.3 12.4 2.5 8.4 5.1 16.7 7.5 25.1.6 2 1.5 4.4 2 6.8 12.2 8.9 21.7 20.7 24.4 36.6 2 11.9-1.6 23.8-5 35.2 7.4-.6 15.5 0 21.4-3.9-3-10.2-5.6-20.8-3.8-31.3 2.2-13.2 9.1-23.6 18.4-31.8 0-.8.1-1.7.6-2.6 7.2-14.7 10.6-31 12.6-47.4C307 315.2 302.5 315.5 298 315.7z"/><path fill="#FCBF95" d="M436.3,413.1c-5.7,3.7-11.6-5.1-5.9-8.8c21.2-13.7,43.4-28.1,58.1-49.2c5.8-8.2,12.9-19.7,12.3-30.2c-0.3-5.1-2.3-9.3-7.3-11.1c-2.4-0.9-5.6-1.7-8.5-1.4c0.5,1.4,0.8,2.8,1,4.3c2.1,18.3-11,36.6-21.6,50.5c-5.8,7.6-12.3,14.8-19.9,20.6c-6.1,4.7-14.3,9.7-22.3,7.4c-6.5-1.9-4.5-12.2,2-10.4c6,1.7,12.8-4.4,17-8c6.5-5.7,12.8-12.6,17.6-19.9c5-7.7,10.4-15,13.8-23.5c3.4-8.6,5.2-18.6-3.1-25c-1.9-1.4-2.5-1.4-4.3,0.2c-2.1,1.8-3.7,4.6-5,7.1c-3.6,6.7-6.1,13.9-9.6,20.6c-4.6,8.9-13,16-21,21.8c-9.9,7.2-20.9,13.2-32.5,17.3c-6.9,2.4-13.5,4.6-20.8,5.7c-7,1-13.9,1.7-20.6,3.9c-0.3,0.1-0.6,0.2-0.9,0.2c-3.8,3.7-11.3-0.6-8.4-6.1c6.9-13.1,22-19.7,34-27.1c9.8-6,24.7-14.7,19-28.5c-0.5-1.2-0.9-1.9-1.8-2.5c0.5,0.3-0.9-0.2-0.6-0.2c-2.4,0-4.5,0.8-6.8,1.9c-6.3,3.1-11.9,8-17.3,12.5c-4.8,4-9.4,8.5-14.7,11.8c-7.7,4.7-17.5,6.4-25.9,9.7c-20.9,8.2-44.8,25.3-42.1,50.9c1.3,12.9,6.6,25,9.1,37.6c1.4,7.4,2.7,14.9,2.8,22.4c0.1,5-0.1,10-0.2,15.1h73.5c1.3,0,2.4,0.4,3.2,1c0.1-0.2,0.2-0.5,0.4-0.7c4.2-6.1,5-16.8,4.4-23.9c-0.6-7.1-2.9-16.9,2.2-22.9c5.4-6.4,13-6.9,20.8-7.6c8.7-0.8,17.6-3.6,25.7-6.7c17.8-6.7,34.2-17.2,46.6-31.8c5.5-6.5,10.4-13.4,14.3-21c1.1-2,2.9-5.2,4.3-8.6C481.8,382.8,459,398.4,436.3,413.1z"/><path fill="#14B6B9" d="M362.3 77.4c-15-7.5-31.1-12.9-48.1-15.9-5.3-.9-10.7-1.6-16-2.2 17 11.1 33.2 22.5 47.4 36.7 1.5-.7 2.9-1.6 4.2-2.7 3.2-2.8 6.3-5.9 9-9.1.9-1.1 1.9-2.2 2.8-3.4C361.6 79.6 361.8 78.5 362.3 77.4zM132.3 108.4c-18.1 16.6-32.3 37.3-41.9 60.7-.6 1.6-1.3 3.2-1.9 4.7 0 0 0 0 0 0 6.7 22.6 23.5 35.6 44 43.1.1-.6.2-1.1.2-1.7 3.8-26.4 10.1-54.7 23.7-78 2.3-3.9 4.6-7.8 6.9-11.7C150.1 122.8 137.5 117.8 132.3 108.4zM180.8 77.9c-14.5 5.8-27.7 13.6-39.6 22.9.3 1.4 1 2.7 2 3.7 3.1 3.3 7 5.3 11.3 6.9 4.8 1.8 9.9 3.2 15.1 4.2 7.3-11.3 15.1-22.2 24-32.3 4.5-5.1 9.3-10.2 14.5-14.8C198.8 71.2 189.7 74.3 180.8 77.9zM313.2 82.5c-8.3-6-16.9-11.6-25.6-16.9-4-2.5-8-4.9-12.1-7.3-3.1 0-6.2.1-9.4.3C277.9 75 288.7 92 297.9 110c6.8-1.5 13.5-3.1 20.1-4.9 5.4-1.5 10.9-3.1 16.2-4.8C327.7 93.9 320.7 88 313.2 82.5zM255.9 63c-5.6 4.8-8.2 13.4-10.2 20.1-3 10.5-5 21.1-8.1 31.6-.3 1.1-.7 2.3-1 3.5 1.8-.1 3.7-.2 5.5-.3 14.8-.9 29.8-2.9 44.5-5.7C277.7 95.1 267.1 78.8 255.9 63zM240.6 61.3c-4.9 1.5-9.5 3.8-13.7 6.6-18.7 12.3-33 31-45.3 49.5 6.5.7 13 1 19.3 1.2 8.1.3 16.1.3 24.2.1 1-3.7 2.1-7.4 3.3-11.1 4.6-14.3 5.5-33.7 14.7-46.7C242.2 61 241.4 61.1 240.6 61.3z"/><path fill="#010101" d="M507.8,312.3c-5-8.8-18.8-12.5-28.5-9.3c-2.5-2.6-5.7-4.7-9.1-5.7c-0.9-0.3-1.8-0.4-2.7-0.4c4.1-26.5,6.3-53.4,3.1-80.1c-3.3-28.3-13.3-54.7-28-79C419,98.6,382.5,69.8,338.9,56.2c-19.5-6.1-39.9-8.8-60.3-8.9c-2.2-1.3-4.5-2.6-6.8-3c-2.9-0.5-5,1.1-5.9,3.3c-5.6,0.3-11.3,0.8-16.9,1.4c-0.8-0.3-1.7-0.4-2.7-0.3c-2.9,0.4-5.6,1-8.3,1.8c-10.6,1.7-21.1,4-31.4,6.9c-22.3,6.2-44.3,14.8-63.5,27.9c-2,1.4-4,2.8-5.9,4.3c-2.8-0.7-6,0.5-6.8,4.1c-0.1,0.5-0.2,1-0.3,1.5c-12.5,10.6-23.4,23.2-32.5,36.8C65.1,180.6,57,244,67.4,300.7c0.1,0.8,0.4,1.5,0.8,2.1c-0.1,0.1-0.1,0.1-0.2,0.2c-9.8-3.2-23.5,0.5-28.5,9.3c-5.7,10-3.6,21.6,0.9,31.7c-4.8,7-1.9,16.2,1.2,23.3c3.4,7.8,7.8,15.2,12.8,22c11.9,16.2,27.6,29,45.7,37.7c9.4,4.5,19.3,8,29.5,10.3c4.3,1,8.4,1.7,12.8,2.1c2.7,0.2,8.2,0,10.2,2.4c2.5,3,1.8,7.2,1.4,10.9c-0.4,4.1-0.7,8-0.5,12c0.5,8.8,1.8,18,6.9,25.4c1.9,2.7,4.7,2.5,6.6,0.9c0.7,1.4,2.1,2.3,4.1,2.3h74.9c0.5,0,0.9-0.1,1.3-0.1c3,2.6,8.7,1.7,8.7-3.3c0-8.9-0.8-17.8-0.1-26.6c0.5-6.6,1.6-13.3,3.2-19.8c0,0,0,0,0,0c9.1-2.7,19.1-0.5,27.7-4.6c0.1,0.3,0.2,0.5,0.2,0.8c2.1,7.6,3.5,15.7,4.1,23.6c0.7,8.8-0.1,17.8-0.1,26.6c0,5,5.7,5.9,8.7,3.3c0.4,0.1,0.8,0.1,1.3,0.1h74.9c2.1,0,3.4-1,4.1-2.3c2,1.6,4.8,1.8,6.6-0.9c5.1-7.4,6.4-16.6,6.9-25.4c0.2-4.1-0.1-8-0.5-12c-0.4-3.7-1.1-7.9,1.4-10.9c2-2.3,7.5-2.1,10.2-2.4c4.4-0.4,8.5-1.1,12.8-2.1c10.2-2.4,20.1-5.8,29.5-10.3c18.1-8.6,33.8-21.5,45.7-37.7c5-6.8,9.4-14.2,12.8-22c3.1-7.1,6-16.3,1.2-23.3C511.4,333.8,513.5,322.3,507.8,312.3z M444.9,165.1c6.4,14.1,11,28.9,13.6,44.2c3.3,19.4,3.3,39,1.6,58.5c-2-0.2-4,0.6-5.1,2.9c-3.3,6.7-12.3,9.5-18.8,11.8c-2.4,0.8-4.8,1.6-7.2,2.2c-1.1-8.7-2.5-17.3-4.2-26c-3.9-19.3-9.2-38.3-16-56.8c10-6.2,19.2-13.9,26.8-22.8C437.8,176.4,442.3,170.7,444.9,165.1z M453.8,306.2c-4.4,6.5-7.2,13.8-10.4,21c-3.4,7.7-8.5,13.2-15.1,18.6c3.8-14.1,3.5-28.8,2.4-43.3c-0.2-2.3-0.4-4.5-0.6-6.8c0.5-0.1,1.1-0.3,1.6-0.4c8.6-2.3,19.2-5.4,26.5-11.6c-0.5,3.9-1.1,7.9-1.7,11.8c-0.9,0.4-1.9,0.9-2.8,1.6C450.4,299.8,451.3,304.1,453.8,306.2z M418.3,350.6c-2.3-0.6,0.4,0.6,2.1,1.2c-8.2,5.7-17.2,10.2-26.6,13.6c-6.6,2.4-12.8,4.3-19.8,5.3c-1.8,0.3-3.7,0.5-5.5,0.8c1.4-0.9,2.7-1.8,4.1-2.6c7.5-4.7,15.3-8.8,22.5-13.9c6.2-4.4,12.3-10,14.9-17.3c2.4-7,1.6-15.8-2.8-22c-8.9-12.8-26-0.5-34.5,6.1c-5.6,4.4-10.9,9.2-16.4,13.6c-1,0.8-2,1.5-3.1,2.3c-1,0.7-1.7,1.1-1.7,1c-4.8,2.1-10.1,3.5-15.1,5.3c-7.4,2.6-15,5.8-22.1,9.8c4.4-12.8,6.7-26.2,8.3-39.7c23.1-2,46-5.3,68.7-9.8c9.3-1.8,18.7-3.7,28-5.8c0.3,2.9,0.5,5.7,0.7,8.6c0.8,11,0.7,21.9-1.5,32.6C413.2,340.2,412.2,349,418.3,350.6z M151.8,354.8c0.1,0.1,0.3,0.2,0.4,0.3c7.2,5.1,15,9.2,22.5,13.9c1.3,0.8,2.7,1.7,4.1,2.6c-1.8-0.3-3.7-0.5-5.5-0.8c-7-1-13.2-2.9-19.8-5.3c-11.6-4.3-22.8-10.2-32.5-17.9c-7.5-6-13.3-11.9-17.1-20.3c-3.2-7.2-6.1-14.6-10.5-21.1c-3.3-4.9-9-10.4-15.5-9c-1.5-8.9-2.6-18-3.2-27c12.5,12.6,30.7,18.7,47.5,23.6c2.2,0.6,4.5,1.3,6.7,1.9c0,0.8,0,1.7,0,2.5c0.2,20.4,6.3,40.2,12.3,59.5C143.2,364,152.8,361,151.8,354.8z M325.8,229.7c25.4-4,50.4-10.6,73.3-22.3c0,0,0,0,0,0c9.3,25.8,15.7,52.7,19,80c-3.7,0.8-7.3,1.5-11,2.3c-25.4,5-50.7,9.9-76.5,12.5c-2.3,0.2-4.6,0.5-6.9,0.7c0.3-3.5,0.6-7.1,0.9-10.6C326.2,271.5,326.6,250.6,325.8,229.7z M347.4,214.3c-7.3,1.7-14.7,3.2-22.1,4.5c-0.3-5.6-0.7-11.1-1.2-16.7c-2.5-28-8.6-54.1-20.2-79.8c-0.3-0.8-0.7-1.5-1-2.3c2.5-0.5,4.9-1.1,7.4-1.7c10.2-2.4,20.4-5.2,30.4-8.6c0.8-0.3,1.5-0.5,2.2-0.8c9.1,10,17.2,20.8,24.4,32.4c11.1,17.7,20.4,36.4,28.1,55.8C380.3,205.2,363.8,210.4,347.4,214.3z M306.6,161.9c3.7,13.4,5.2,27.1,6.5,41c0.5,5.8,1,11.7,1.3,17.6c-30.7,4.4-62.1,5.5-92.8,6c0.5-22.4,2.9-44.9,6.3-67c1.5-10.1,3.5-20.2,5.9-30.1c19.4-1,38.8-3.4,58-7.1c0.6,1.2,1.2,2.4,1.7,3.7C298.8,137.5,303.2,149.6,306.6,161.9z M212.2,197.7c-0.8,9.6-1.4,19.3-1.6,29c-20.6,0.1-45.4-0.6-67.4-6.4c1.7-12.6,4.1-25.1,7.4-37.3c5.3-20,13.9-38,24.6-55.4c8.4,1.1,16.1,1.5,21.5,1.8c8.5,0.5,17.1,0.6,25.6,0.4C217,152,214.1,175,212.2,197.7z M164,235c15.3,2,30.8,2.9,46.4,2.9c0.1,17.2,1.2,34.3,3.5,51.3c0.7,4.9,1.5,9.7,2.4,14.4c-9.1-1.2-18.1-2.8-27-4.5c-15-3-30-6.4-44.7-10.7c-1.7-0.5-3.5-1-5.3-1.5c0-7,0.1-14,0.3-20.9c0.2-11.8,0.9-23.6,2.2-35.4C149.2,232.6,156.7,234,164,235z M141.4,314.1c-0.3-1.9-0.6-3.7-0.8-5.6c-0.4-3.3-0.7-6.6-0.8-9.9c21.2,5.8,42.6,10.9,64.3,14.4c4.9,0.8,9.8,1.4,14.7,1.9c2.8,11.9,6.2,23.6,9.7,35.3c0.1,0.5,0.3,1,0.4,1.4c-5.9-3-12.1-5.6-18.2-7.7c-5-1.8-10.3-3.1-15.1-5.3c0.1,0-0.7-0.4-1.7-1c-1-0.7-2.1-1.5-3.1-2.3c-5.6-4.4-10.8-9.2-16.4-13.6C166.5,315.5,150.6,304.1,141.4,314.1z M227.7,304.8c-3.5-17.5-5.3-35.4-6-53.2c-0.2-4.6-0.3-9.1-0.3-13.7c19.8-0.3,39.6-1.7,59.1-3.2c11.4-0.9,22.9-1.9,34.4-3.4c0.7,19.6,0.4,39.3-1.1,58.9c-0.3,4.5-0.7,9-1.1,13.6c-25.4,1.8-50.9,2.2-76.3,1.5C233.5,305.2,230.6,305.1,227.7,304.8z M371.7,85.5c0.5-0.7,0.8-1.5,1.1-2.4c19.7,11.7,37,27.3,51,46.1c5.1,6.9,9.7,14.1,13.9,21.6c-4.7,0.4-5.2,6.4-2.1,9.4c-0.4,0.7-0.9,1.7-1.2,2.2c-2,3.4-4.5,6.5-7,9.5c-5.2,6.2-9.6,10.1-16.1,15c-2.1,1.6-4.3,3.1-6.5,4.6c-2-5-4.1-9.9-6.3-14.7c-11.6-25.8-26-50.9-44.7-72.2c-0.1-0.2-0.3-0.3-0.4-0.5c2-1.2,4-2.7,5.9-4.4C363.8,95.4,368.3,90.8,371.7,85.5z M314.2,61.5c16.9,3,33.1,8.4,48.1,15.9c-0.5,1.1-0.7,2.2-0.6,3.4c-0.9,1.2-1.8,2.3-2.8,3.4c-2.8,3.2-5.8,6.4-9,9.1c-1.3,1.1-2.7,2-4.2,2.7c-14.3-14.2-30.5-25.6-47.4-36.7C303.5,59.8,308.9,60.5,314.2,61.5z M275.5,58.4c4.1,2.3,8.1,4.8,12.1,7.3c8.7,5.4,17.3,11,25.6,16.9c7.5,5.4,14.5,11.3,21,17.7c-5.4,1.8-10.8,3.4-16.2,4.8c-6.6,1.8-13.4,3.5-20.1,4.9c-9.1-17.9-20-35-31.7-51.4C269.3,58.5,272.4,58.4,275.5,58.4z M255.9,63c11.3,15.8,21.8,32.1,30.8,49.2c-14.8,2.8-29.7,4.7-44.5,5.7c-1.8,0.1-3.7,0.2-5.5,0.3c0.3-1.2,0.6-2.3,1-3.5c3.1-10.5,5.1-21.1,8.1-31.6C247.6,76.4,250.3,67.9,255.9,63z M240.6,61.3c0.8-0.1,1.6-0.3,2.4-0.4c-9.1,13-10.1,32.4-14.7,46.7c-1.2,3.7-2.3,7.4-3.3,11.1c-8.1,0.2-16.1,0.2-24.2-0.1c-6.3-0.2-12.8-0.5-19.3-1.2c12.2-18.5,26.6-37.1,45.3-49.5C231.1,65.1,235.8,62.8,240.6,61.3z M180.8,77.9c8.9-3.6,18-6.7,27.2-9.4c-5.2,4.6-10,9.7-14.5,14.8c-8.8,10.1-16.7,21-24,32.3c-5.2-1-10.2-2.3-15.1-4.2c-4.3-1.6-8.1-3.6-11.3-6.9c-1-1-1.7-2.3-2-3.7C153.1,91.4,166.4,83.7,180.8,77.9z M90.4,169.1c9.6-23.4,23.8-44.1,41.9-60.7c5.1,9.4,17.8,14.4,31,17.2c-2.4,3.9-4.7,7.8-6.9,11.7c-13.5,23.3-19.8,51.6-23.7,78c-0.1,0.6-0.2,1.1-0.2,1.7c-20.5-7.4-37.3-20.5-44-43.1c0,0,0,0,0,0C89.2,172.3,89.8,170.7,90.4,169.1z M83.2,189.9c10,19,27.9,30.7,48.1,37.6c-2,18.8-2.4,37.7-2.4,56.7c-20.4-5.4-42.1-12.1-52.9-30.5c-0.5-0.8-1.1-1.4-1.7-1.8C74.4,230.9,77.3,210,83.2,189.9z M257.1,407.6c-1.3,12.9-6.6,25-9.1,37.6c-1.4,7.4-2.7,14.9-2.8,22.4c-0.1,5,0.1,10,0.2,15.1H172c-1.3,0-2.4,0.4-3.2,1c-0.1-0.2-0.2-0.5-0.4-0.7c-4.2-6.1-5-16.8-4.4-23.9c0.6-7.1,2.9-16.9-2.2-22.9c-5.4-6.4-13-6.9-20.8-7.6c-8.7-0.8-17.6-3.6-25.7-6.7c-17.8-6.7-34.2-17.2-46.6-31.8c-5.5-6.5-10.4-13.4-14.3-21c-1.1-2-2.9-5.2-4.3-8.6c15.6,22.2,38.4,37.8,61.1,52.5c5.7,3.7,11.6-5.1,5.9-8.8c-21.2-13.7-43.4-28.1-58.1-49.2C53,347,45.9,335.5,46.5,325c0.3-5.1,2.3-9.3,7.3-11.1c2.4-0.9,5.6-1.7,8.5-1.4c-0.5,1.4-0.8,2.8-1,4.3c-2.1,18.3,11,36.6,21.6,50.5c5.8,7.6,12.3,14.8,19.9,20.6c6.1,4.7,14.3,9.7,22.3,7.4c6.5-1.9,4.5-12.2-2-10.4c-6,1.7-12.8-4.4-17-8c-6.5-5.7-12.8-12.6-17.6-19.9c-5-7.7-10.4-15-13.8-23.5c-3.4-8.6-5.2-18.6,3.1-25c1.9-1.4,2.5-1.4,4.3,0.2c2.1,1.8,3.7,4.6,5,7.1c3.6,6.7,6.1,13.9,9.6,20.6c4.6,8.9,13,16,21,21.8c9.9,7.2,20.9,13.2,32.5,17.3c6.9,2.4,13.5,4.6,20.8,5.7c7,1,13.9,1.7,20.6,3.9c0.3,0.1,0.6,0.2,0.9,0.2c3.8,3.7,11.3-0.6,8.4-6.1c-6.9-13.1-22-19.7-34-27.1c-9.8-6-24.7-14.7-19-28.5c0.5-1.2,0.9-1.9,1.8-2.5c-0.5,0.3,0.9-0.2,0.6-0.2c2.4,0,4.5,0.8,6.8,1.9c6.3,3.1,11.9,8,17.3,12.5c4.8,4,9.4,8.5,14.7,11.8c7.7,4.7,17.5,6.4,25.9,9.7c6,2.3,12.1,5.4,17.9,9.2c0.4,2.9,2.8,5.4,6,4.4C250.4,379.5,258.7,391.9,257.1,407.6z M279.9,396.7c-1.7,10.5,0.8,21.1,3.8,31.3c-5.9,3.9-14,3.3-21.4,3.9c3.4-11.5,6.9-23.3,5-35.2c-2.6-15.9-12.2-27.7-24.4-36.6c-0.5-2.4-1.4-4.8-2-6.8c-2.4-8.4-5-16.7-7.5-25.1c-1.2-4.1-2.3-8.2-3.3-12.4c22.6,1.6,45.4,0.9,67.9-0.2c4.5-0.2,9-0.5,13.5-0.8c-2,16.4-5.4,32.7-12.6,47.4c-0.4,0.9-0.6,1.8-0.6,2.6C289.1,373.1,282.1,383.5,279.9,396.7z M436.3,413.1c22.7-14.7,45.5-30.3,61.1-52.5c-1.4,3.3-3.3,6.5-4.3,8.6c-4,7.5-8.8,14.5-14.3,21c-12.5,14.6-28.8,25-46.6,31.8c-8.2,3.1-17,6-25.7,6.7c-7.8,0.7-15.4,1.2-20.8,7.6c-5.1,6-2.8,15.9-2.2,22.9c0.6,7.2-0.2,17.9-4.4,23.9c-0.2,0.2-0.3,0.5-0.4,0.7c-0.9-0.6-1.9-1-3.2-1h-73.5c0.1-5,0.3-10,0.2-15.1c-0.1-7.6-1.4-15-2.8-22.4c-2.4-12.7-7.7-24.7-9.1-37.6c-2.7-25.5,21.2-42.6,42.1-50.9c8.4-3.3,18.2-5,25.9-9.7c5.3-3.2,9.9-7.8,14.7-11.8c5.4-4.5,11-9.3,17.3-12.5c2.3-1.2,4.4-1.9,6.8-1.9c-0.3,0,1.1,0.5,0.6,0.2c0.9,0.6,1.3,1.3,1.8,2.5c5.7,13.7-9.2,22.5-19,28.5c-12,7.3-27.1,14-34,27.1c-2.9,5.5,4.7,9.8,8.4,6.1c0.3,0,0.6-0.1,0.9-0.2c6.7-2.1,13.7-2.9,20.6-3.9c7.3-1.1,13.9-3.2,20.8-5.7c11.6-4.1,22.6-10.1,32.5-17.3c8-5.8,16.4-13,21-21.8c3.5-6.7,6-13.9,9.6-20.6c1.3-2.4,2.8-5.2,5-7.1c1.8-1.6,2.4-1.7,4.3-0.2c8.3,6.4,6.5,16.3,3.1,25c-3.4,8.6-8.9,15.9-13.8,23.5c-4.7,7.3-11,14.2-17.6,19.9c-4.2,3.6-11,9.7-17,8c-6.6-1.9-8.5,8.5-2,10.4c8,2.3,16.2-2.8,22.3-7.4c7.6-5.8,14.2-13.1,19.9-20.6c10.5-13.9,23.7-32.2,21.6-50.5c-0.2-1.4-0.5-2.9-1-4.3c2.9-0.2,6.1,0.5,8.5,1.4c5,1.8,7,6,7.3,11.1c0.6,10.5-6.6,22-12.3,30.2c-14.7,21-36.9,35.4-58.1,49.2C424.6,408.1,430.6,416.8,436.3,413.1z"/></svg>